# xmcd CD database file
#
# Track frame offsets:
#	150
#	26875
#	43642
#	60046
#	79115
#	94393
#	115148
#	133236
#	157639
#	180660
#
# Disc length: 2701 seconds
#
# Revision: 1
# Processed by: cddbd v1.5.2PL0 Copyright (c) Steve Scherf et al.
# Submitted via: CDex 1.70beta2
#
DISCID=770a8b0a
DTITLE=João Araújo - Viola Urbana ao vivo!
DYEAR=2008
DGENRE=Country
TTITLE0=Amanheceu, peguei a viola - Comitiva esperança
TTITLE1=Ponteio
TTITLE2=Sabiá
TTITLE3=Dono dos teus olhos - Felicidade de cabloco
TTITLE4=Cantiga de beira d'água
TTITLE5=Caicó catinga - Cio da terra
TTITLE6=O cantador
TTITLE7=A massa - Quixabeira - Preta pretinha
TTITLE8=Viola enluarada
TTITLE9=Trem do Pantanal - Chalana
EXTD=YEAR: 2008
EXTT0=
EXTT1=
EXTT2=
EXTT3=
EXTT4=
EXTT5=
EXTT6=
EXTT7=
EXTT8=
EXTT9=
PLAYORDER=
